<svg width="450" height="193" viewBox="0 0 450 193" fill="none" xmlns="http://www.w3.org/2000/svg">
<rect width="450.001" height="192.432" fill="white"/>
<path fill-rule="evenodd" clip-rule="evenodd" d="M202.426 88.2865C202.222 86.962 201.145 85.4836 197.859 86.0301V77.3504C201.77 76.5555 209.979 76.3093 211.555 81.6754C215.204 78.4445 220.007 76.4824 225.269 76.4824C234.309 76.4824 241.674 83.7273 241.802 92.747L241.842 95.5903C242.03 108.82 229.171 118.344 216.534 114.336L213.3 113.31V129.863H202.426V88.2865ZM213.3 104.041V94.4928C213.3 89.5793 217.292 85.5961 222.216 85.5961C227.14 85.5961 231.132 89.5793 231.132 94.4928V97.2161C231.132 103.067 225.569 107.325 219.905 105.809L213.3 104.041Z" fill="#0D0324"/>
<path d="M248.728 65.5265L253.713 62.6943C254.271 62.3771 254.957 62.378 255.519 62.6966L260.514 65.5314C261.087 65.8566 261.442 66.463 261.444 67.119L261.461 72.8045C261.463 73.4582 261.114 74.0607 260.546 74.3833L255.565 77.2133C255.005 77.5316 254.316 77.5296 253.753 77.2078L248.755 74.3476C248.185 74.0215 247.832 73.4169 247.83 72.7632L247.813 67.1053C247.811 66.4516 248.16 65.8491 248.728 65.5265Z" fill="#0D0324"/>
<path d="M252.455 79.4667L249.4 77.7185V114.239H260.274V77.5347L256.856 79.4762C255.488 80.2536 253.814 80.2441 252.455 79.4667Z" fill="#0D0324"/>
<path d="M277.454 76.9163H266.531C266.198 76.9163 265.928 77.1859 265.928 77.5185V77.6436C265.928 77.7361 265.949 77.8274 265.99 77.9103L283.978 114.239H288.762L306.534 77.9093C306.574 77.827 306.595 77.7366 306.595 77.6451V77.5185C306.595 77.1859 306.325 76.9163 305.992 76.9163H294.852L286.37 97.9646H286.153L277.454 76.9163Z" fill="#0D0324"/>
<path fill-rule="evenodd" clip-rule="evenodd" d="M326.369 76.4824C315.808 76.4824 307.248 85.0245 307.248 95.5616V96.0279C307.248 106.565 315.808 115.107 326.369 115.107H329.446C340.006 115.107 348.567 106.565 348.567 96.0279V95.5616C348.567 85.0245 340.006 76.4824 329.446 76.4824H326.369ZM328.125 105.993C333.65 105.993 338.129 101.427 338.129 95.7948C338.129 90.1622 333.65 85.5961 328.125 85.5961C322.6 85.5961 318.121 90.1622 318.121 95.7948C318.121 101.427 322.6 105.993 328.125 105.993Z" fill="#0D0324"/>
<path d="M350.525 85.162V77.3503C354.782 75.8902 357.83 72.1333 358.375 67.6748L358.571 66.0667H368.357V77.3503H380.318V85.813H368.357V101.002C368.357 106.905 375.896 105.921 379.666 104.691L381.623 112.937C381.623 112.937 376.404 114.89 370.75 114.89C360.137 114.89 357.484 105.921 357.484 101.436V85.813L350.525 85.162Z" fill="#0D0324"/>
<rect x="64" y="34" width="124" height="124" rx="8" fill="white"/>
<path d="M125.483 59.0401C125.483 58.6434 125.912 58.3947 126.256 58.5915L151.056 72.7629C151.217 72.8549 151.317 73.0261 151.317 73.2115V101.518C151.317 101.914 150.888 102.163 150.544 101.966L134.519 92.8093C133.486 92.2188 132.2 92.9649 132.2 94.155C132.2 94.7113 132.498 95.2249 132.981 95.5008L149.006 104.658C151.417 106.036 154.417 104.295 154.417 101.518V73.2115C154.417 71.9137 153.721 70.7153 152.594 70.0714L127.794 55.9C125.383 54.5222 122.383 56.2631 122.383 59.0401V80.1175C122.383 81.3076 123.669 82.0537 124.702 81.4632C125.185 81.1873 125.483 80.6737 125.483 80.1175V59.0401Z" fill="black"/>
<path d="M135.25 80.7401C135.25 76.8114 131.006 74.3484 127.595 76.2975L102.795 90.469C101.201 91.38 100.217 93.0753 100.217 94.9115V123.218C100.217 127.146 104.461 129.609 107.872 127.66L132.672 113.489C134.266 112.578 135.25 110.882 135.25 109.046V80.7401ZM106.317 95.4821L129.15 82.4345V108.475L106.317 121.523V95.4821Z" fill="black" stroke="white" stroke-width="3"/>
<path fill-rule="evenodd" clip-rule="evenodd" d="M129.076 50.3169C127.17 49.2277 124.83 49.2277 122.924 50.3169L87.7906 70.3931C85.8588 71.497 84.6667 73.5513 84.6667 75.7762V115.782C84.6667 118.006 85.8588 120.061 87.7906 121.165L122.924 141.241C124.83 142.33 127.17 142.33 129.076 141.241L164.209 121.165C166.141 120.061 167.333 118.006 167.333 115.782V75.7762C167.333 73.5513 166.141 71.497 164.209 70.3931L129.076 50.3169ZM120.873 46.7282C124.05 44.9129 127.95 44.9129 131.127 46.7282L166.26 66.8044C169.48 68.6442 171.467 72.068 171.467 75.7762V115.782C171.467 119.49 169.48 122.914 166.26 124.753L131.127 144.83C127.95 146.645 124.05 146.645 120.873 144.83L85.7399 124.753C82.5203 122.914 80.5333 119.49 80.5333 115.782V75.7762C80.5333 72.068 82.5203 68.6442 85.7399 66.8044L120.873 46.7282Z" fill="black"/>
</svg>
